G75*
G70*
%OFA0B0*%
%FSLAX24Y24*%
%IPPOS*%
%LPD*%
%AMOC8*
5,1,8,0,0,1.08239X$1,22.5*
%
%ADD10C,0.0000*%
%ADD11C,0.0600*%
%ADD12OC8,0.0600*%
%ADD13R,0.0730X0.0730*%
%ADD14C,0.0730*%
%ADD15R,0.0820X0.0820*%
%ADD16C,0.0820*%
%ADD17C,0.0595*%
%ADD18C,0.1202*%
%ADD19C,0.0680*%
%ADD20C,0.0476*%
D10*
X000917Y000252D02*
X000917Y019937D01*
X020602Y019937D01*
X020602Y000252D01*
X000917Y000252D01*
D11*
X009157Y001752D02*
X009677Y001752D01*
X009677Y002752D02*
X009157Y002752D01*
X009157Y003752D02*
X009677Y003752D01*
X009677Y004752D02*
X009157Y004752D01*
X009157Y005752D02*
X009677Y005752D01*
X009677Y006752D02*
X009157Y006752D01*
X009157Y007752D02*
X009677Y007752D01*
X009677Y008752D02*
X009157Y008752D01*
X009157Y009752D02*
X009677Y009752D01*
X009677Y010752D02*
X009157Y010752D01*
X009157Y011752D02*
X009677Y011752D01*
X009677Y012752D02*
X009157Y012752D01*
X009157Y013752D02*
X009677Y013752D01*
X009677Y014752D02*
X009157Y014752D01*
X012157Y014752D02*
X012677Y014752D01*
X012677Y013752D02*
X012157Y013752D01*
X012157Y012752D02*
X012677Y012752D01*
X012677Y011752D02*
X012157Y011752D01*
X012157Y010752D02*
X012677Y010752D01*
X012677Y009752D02*
X012157Y009752D01*
X012157Y008752D02*
X012677Y008752D01*
X012677Y007752D02*
X012157Y007752D01*
X012157Y006752D02*
X012677Y006752D01*
X012677Y005752D02*
X012157Y005752D01*
X012157Y004752D02*
X012677Y004752D01*
X012677Y003752D02*
X012157Y003752D01*
X012157Y002752D02*
X012677Y002752D01*
X012677Y001752D02*
X012157Y001752D01*
D12*
X015917Y002252D03*
X017917Y002752D03*
X017917Y003752D03*
X017917Y004752D03*
X015917Y005252D03*
X015917Y007752D03*
X015917Y008752D03*
X017917Y007752D03*
X014417Y013752D03*
X014417Y014752D03*
X015417Y016252D03*
X012417Y016252D03*
X012417Y017752D03*
X012417Y018752D03*
X010417Y017752D03*
X010417Y016752D03*
X008917Y019252D03*
X007917Y019252D03*
X018417Y017252D03*
X019917Y017252D03*
X019917Y014252D03*
X018417Y014252D03*
D13*
X014417Y006752D03*
X008417Y017752D03*
D14*
X008417Y016752D03*
X014417Y005752D03*
D15*
X019917Y004252D03*
X019917Y009252D03*
X019917Y019252D03*
X016417Y019252D03*
X007417Y007752D03*
X001417Y009252D03*
X001417Y004252D03*
X007417Y001252D03*
X001417Y014252D03*
D16*
X001417Y013252D03*
X001417Y012252D03*
X001417Y011252D03*
X001417Y008252D03*
X001417Y007252D03*
X001417Y006252D03*
X001417Y003252D03*
X001417Y002252D03*
X001417Y001252D03*
X003417Y001252D03*
X004417Y001252D03*
X005417Y001252D03*
X006417Y001252D03*
X007417Y005752D03*
X007417Y006752D03*
X019917Y006252D03*
X019917Y007252D03*
X019917Y008252D03*
X019917Y003252D03*
X019917Y002252D03*
X019917Y001252D03*
X018917Y019252D03*
X017917Y019252D03*
X015417Y019252D03*
X014417Y019252D03*
D17*
X003587Y016152D03*
X002917Y016152D03*
X002217Y016152D03*
X002587Y016772D03*
X003277Y016772D03*
D18*
X004354Y018252D03*
X001480Y018252D03*
D19*
X006117Y017752D02*
X006717Y017752D01*
X006717Y018752D02*
X006117Y018752D01*
X006117Y016752D02*
X006717Y016752D01*
D20*
X005167Y016502D03*
X003417Y011252D03*
X002917Y009252D03*
X010917Y013752D03*
X011417Y014252D03*
X013917Y009752D03*
X016917Y010752D03*
X016417Y012752D03*
X016417Y018252D03*
M02*
