%
M48
M72
T01C0.0236
T02C0.0276
T03C0.0315
T04C0.0320
T05C0.0400
T06C0.0748
%
T01
X2917Y9252
X3417Y11252
X5167Y16502
X10917Y13752
X11417Y14252
X13917Y9752
X16917Y10752
X16417Y12752
X16417Y18252
T02
X8417Y17752
X8417Y16752
X14417Y6752
X14417Y5752
T03
X2217Y16152
X2917Y16152
X3587Y16152
X3277Y16772
X2587Y16772
T04
X7917Y19252
X8917Y19252
X10417Y17752
X10417Y16752
X12417Y16252
X12417Y17752
X12417Y18752
X15417Y16252
X14417Y14752
X14417Y13752
X12417Y13752
X12417Y14752
X12417Y12752
X12417Y11752
X12417Y10752
X12417Y9752
X12417Y8752
X12417Y7752
X12417Y6752
X12417Y5752
X12417Y4752
X12417Y3752
X12417Y2752
X12417Y1752
X9417Y1752
X9417Y2752
X9417Y3752
X9417Y4752
X9417Y5752
X9417Y6752
X9417Y7752
X9417Y8752
X9417Y9752
X9417Y10752
X9417Y11752
X9417Y12752
X9417Y13752
X9417Y14752
X15917Y8752
X15917Y7752
X17917Y7752
X15917Y5252
X17917Y4752
X17917Y3752
X17917Y2752
X15917Y2252
X18417Y14252
X19917Y14252
X19917Y17252
X18417Y17252
T05
X6417Y18752
X6417Y17752
X6417Y16752
X1417Y14252
X1417Y13252
X1417Y12252
X1417Y11252
X1417Y9252
X1417Y8252
X1417Y7252
X1417Y6252
X1417Y4252
X1417Y3252
X1417Y2252
X1417Y1252
X3417Y1252
X4417Y1252
X5417Y1252
X6417Y1252
X7417Y1252
X7417Y5752
X7417Y6752
X7417Y7752
X14417Y19252
X15417Y19252
X16417Y19252
X17917Y19252
X18917Y19252
X19917Y19252
X19917Y9252
X19917Y8252
X19917Y7252
X19917Y6252
X19917Y4252
X19917Y3252
X19917Y2252
X19917Y1252
T06
X1480Y18252
X4354Y18252
M30
