  0
SECTION
  2
HEADER
  9
$ACADVER
  1
AC1009
  9
$DWGCODEPAGE
  3
undefined
  9
$INSBASE
 10
0.0
 20
0.0
 30
0.0
  9
$EXTMIN
 10
1.000000000000000E+20
 20
1.000000000000000E+20
 30
1.000000000000000E+20
  9
$EXTMAX
 10
-1.000000000000000E+20
 20
-1.000000000000000E+20
 30
-1.000000000000000E+20
  9
$LIMMIN
 10
0.0
 20
0.0
  9
$LIMMAX
 10
12.0
 20
9.0
  9
$ORTHOMODE
 70
     0
  9
$REGENMODE
 70
     1
  9
$FILLMODE
 70
     1
  9
$QTEXTMODE
 70
     0
  9
$MIRRTEXT
 70
     1
  9
$DRAGMODE
 70
     2
  9
$LTSCALE
 40
1.0
  9
$OSMODE
 70
    37
  9
$ATTMODE
 70
     1
  9
$TEXTSIZE
 40
0.2
  9
$TRACEWID
 40
0.05
  9
$TEXTSTYLE
  7
STANDARD
  9
$CLAYER
  8
0
  9
$CELTYPE
  6
BYLAYER
  9
$CECOLOR
 62
   256
  9
$DIMSCALE
 40
1.0
  9
$DIMASZ
 40
0.18
  9
$DIMEXO
 40
0.0625
  9
$DIMDLI
 40
0.38
  9
$DIMRND
 40
0.0
  9
$DIMDLE
 40
0.0
  9
$DIMEXE
 40
0.18
  9
$DIMTP
 40
0.0
  9
$DIMTM
 40
0.0
  9
$DIMTXT
 40
0.18
  9
$DIMCEN
 40
0.09
  9
$DIMTSZ
 40
0.0
  9
$DIMTOL
 70
     0
  9
$DIMLIM
 70
     0
  9
$DIMTIH
 70
     1
  9
$DIMTOH
 70
     1
  9
$DIMSE1
 70
     0
  9
$DIMSE2
 70
     0
  9
$DIMTAD
 70
     0
  9
$DIMZIN
 70
     0
  9
$DIMBLK
  1

  9
$DIMASO
 70
     1
  9
$DIMSHO
 70
     1
  9
$DIMPOST
  1

  9
$DIMAPOST
  1

  9
$DIMALT
 70
     0
  9
$DIMALTD
 70
     2
  9
$DIMALTF
 40
25.4
  9
$DIMLFAC
 40
1.0
  9
$DIMTOFL
 70
     0
  9
$DIMTVP
 40
0.0
  9
$DIMTIX
 70
     0
  9
$DIMSOXD
 70
     0
  9
$DIMSAH
 70
     0
  9
$DIMBLK1
  1

  9
$DIMBLK2
  1

  9
$DIMSTYLE
  2
STANDARD
  9
$DIMCLRD
 70
     0
  9
$DIMCLRE
 70
     0
  9
$DIMCLRT
 70
     0
  9
$DIMTFAC
 40
1.0
  9
$DIMGAP
 40
0.09
  9
$LUNITS
 70
     2
  9
$LUPREC
 70
     4
  9
$SKETCHINC
 40
0.1
  9
$FILLETRAD
 40
0.5
  9
$AUNITS
 70
     0
  9
$AUPREC
 70
     0
  9
$MENU
  1
.
  9
$ELEVATION
 40
0.0
  9
$PELEVATION
 40
0.0
  9
$THICKNESS
 40
0.0
  9
$LIMCHECK
 70
     0
  9
$CHAMFERA
 40
0.0
  9
$CHAMFERB
 40
0.0
  9
$SKPOLY
 70
     0
  9
$TDCREATE
 40
2457143.016400463
  9
$TDUPDATE
 40
2457143.016400463
  9
$TDINDWG
 40
0.0000000116
  9
$TDUSRTIMER
 40
0.0000000116
  9
$USRTIMER
 70
     1
  9
$ANGBASE
 50
0.0
  9
$ANGDIR
 70
     0
  9
$PDMODE
 70
     0
  9
$PDSIZE
 40
0.0
  9
$PLINEWID
 40
0.0
  9
$COORDS
 70
     1
  9
$SPLFRAME
 70
     0
  9
$SPLINETYPE
 70
     6
  9
$SPLINESEGS
 70
     8
  9
$ATTDIA
 70
     0
  9
$ATTREQ
 70
     1
  9
$HANDLING
 70
     1
  9
$HANDSEED
  5
100001AF
  9
$SURFTAB1
 70
     6
  9
$SURFTAB2
 70
     6
  9
$SURFTYPE
 70
     6
  9
$SURFU
 70
     6
  9
$SURFV
 70
     6
  9
$UCSNAME
  2

  9
$UCSORG
 10
0.0
 20
0.0
 30
0.0
  9
$UCSXDIR
 10
1.0
 20
0.0
 30
0.0
  9
$UCSYDIR
 10
0.0
 20
1.0
 30
0.0
  9
$PUCSNAME
  2

  9
$PUCSORG
 10
0.0
 20
0.0
 30
0.0
  9
$PUCSXDIR
 10
1.0
 20
0.0
 30
0.0
  9
$PUCSYDIR
 10
0.0
 20
1.0
 30
0.0
  9
$USERI1
 70
     0
  9
$USERI2
 70
     0
  9
$USERI3
 70
     0
  9
$USERI4
 70
     0
  9
$USERI5
 70
     0
  9
$USERR1
 40
0.0
  9
$USERR2
 40
0.0
  9
$USERR3
 40
0.0
  9
$USERR4
 40
0.0
  9
$USERR5
 40
0.0
  9
$WORLDVIEW
 70
     1
  9
$SHADEDGE
 70
     3
  9
$SHADEDIF
 70
    70
  9
$TILEMODE
 70
     1
  9
$MAXACTVP
 70
    64
  9
$PLIMCHECK
 70
     0
  9
$PEXTMIN
 10
1.000000000000000E+20
 20
1.000000000000000E+20
 30
1.000000000000000E+20
  9
$PEXTMAX
 10
-1.000000000000000E+20
 20
-1.000000000000000E+20
 30
-1.000000000000000E+20
  9
$PLIMMIN
 10
0.0
 20
0.0
  9
$PLIMMAX
 10
12.0
 20
9.0
  9
$UNITMODE
 70
     0
  9
$VISRETAIN
 70
     1
  9
$PLINEGEN
 70
     0
  9
$PSLTSCALE
 70
     1
  0
ENDSEC
  0
SECTION
  2
TABLES
  0
TABLE
  2
VPORT
 70
     1
  0
VPORT
  2
*ACTIVE
 70
     0
 10
0.0
 20
0.0
 11
1.0
 21
1.0
 12
10.42990654205607
 22
4.5
 13
0.0
 23
0.0
 14
0.5
 24
0.5
 15
0.5
 25
0.5
 16
0.0
 26
0.0
 36
1.0
 17
0.0
 27
0.0
 37
0.0
 40
9.0
 41
1.972972972850329
 42
50.0
 43
0.0
 44
0.0
 50
0.0
 51
0.0
 71
     0
 72
   100
 73
     1
 74
     3
 75
     0
 76
     0
 77
     0
 78
     0
  0
ENDTAB
  0
TABLE
  2
LTYPE
 70
     5
  0
LTYPE
  2
CONTINUOUS
 70
     0
  3
Solid line
 72
    65
 73
     0
 40
0.0
  0
LTYPE
  2
HIDDEN
 70
     0
  3
Hidden line ____ ____ ____ ____ 
 72
    83
 73
     2
 40
0.125
 49
0.25
 49
-0.125
  0
LTYPE
  2
PHANTOM
 70
     0
  3
Phantom line ______  __  __  ______  __  __
 72
    83
 73
     6
 40
0.5
 49
0.625
 49
-0.125
 49
0.125
 49
-0.125
 49
0.125
 49
-0.125
  0
LTYPE
  2
CENTER
 70
     0
  3
Center line ____ _ ____ _ ____ _
 72
    83
 73
     4
 40
0.5
 49
0.625
 49
-0.125
 49
0.125
 49
-0.125
  0
LTYPE
  2
DASHED
 70
     0
  3
Dashed line __ __ __ __
 72
    83
 73
     2
 40
0.25
 49
0.5
 49
-0.25
  0
ENDTAB
  0
TABLE
  2
LAYER
 70
     3
  0
LAYER
  2
0
 70
     0
 62
     7
  6
CONTINUOUS
  0
LAYER
  2
HIDDEN
 70
     0
 62
    -7
  6
HIDDEN
  0
LAYER
  2
VISIBLE
 70
     0
 62
     7
  6
CONTINUOUS
  0
ENDTAB
  0
TABLE
  2
STYLE
 70
     2
  0
STYLE
  2
STANDARD
 70
     0
 40
0.0
 41
1.0
 50
0.0
 71
     0
 42
0.2
  3
txt
  4

  0
STYLE
  2
ODATTFSTYLE
 70
     0
 40
0.0
 41
1.0
 50
0.0
 71
     0
 42
0.2
  3
Verdana.ttf
  4

  0
ENDTAB
  0
TABLE
  2
VIEW
 70
     0
  0
ENDTAB
  0
TABLE
  2
UCS
 70
     0
  0
ENDTAB
  0
TABLE
  2
APPID
 70
     1
  0
APPID
  2
ACAD
 70
     0
  0
ENDTAB
  0
TABLE
  2
DIMSTYLE
 70
     1
  0
DIMSTYLE
  2
STANDARD
 70
     0
  3

  4

  5

  6

  7

 40
1.0
 41
0.18
 42
0.0625
 43
0.38
 44
0.18
 45
0.0
 46
0.0
 47
0.0
 48
0.0
140
0.18
141
0.09
142
0.0
143
25.4
144
1.0
145
0.0
146
1.0
147
0.09
 71
     0
 72
     0
 73
     1
 74
     1
 75
     0
 76
     0
 77
     0
 78
     0
170
     0
171
     2
172
     0
173
     0
174
     0
175
     0
176
     0
177
     0
178
     0
  0
ENDTAB
  0
ENDSEC
  0
SECTION
  2
BLOCKS
  0
BLOCK
  8
0
  2
$MODEL_SPACE
 70
     0
 10
0.0
 20
0.0
 30
0.0
  3
$MODEL_SPACE
  1

  0
ENDBLK
  5
21
  8
0
  0
BLOCK
 67
     1
  8
0
  2
$PAPER_SPACE
 70
     0
 10
0.0
 20
0.0
 30
0.0
  3
$PAPER_SPACE
  1

  0
ENDBLK
  5
1D
 67
     1
  8
0
  0
ENDSEC
  0
SECTION
  2
ENTITIES
  0
ARC
  5
F512E
  8
VISIBLE
 10
-5.830039669997051
 20
0.4999999999999952
 30
0.0
 40
4.000000000000001
 50
355.0399569508203
 51
4.960043049179811
210
0.0
220
0.0
230
-1.0
  0
ARC
  5
F512F
  8
VISIBLE
 10
-1.850000000000001
 20
0.8454116750339743
 30
0.0
 40
0.005
 50
4.960043049181134
 51
175.0399569508195
210
0.0
220
0.0
230
-1.0
  0
ARC
  5
F5130
  8
VISIBLE
 10
2.130039669997049
 20
0.5000000000000034
 30
0.0
 40
4.000000000000001
 50
175.0399569508203
 51
184.9600430491798
210
0.0
220
0.0
230
-1.0
  0
ARC
  5
F5131
  8
VISIBLE
 10
-1.850000000000001
 20
0.1545883249660243
 30
0.0
 40
0.005
 50
184.9600430491799
 51
355.0399569508207
210
0.0
220
0.0
230
-1.0
  0
ARC
  5
F5132
  8
VISIBLE
 10
-5.73003966999705
 20
0.4999999999999952
 30
0.0
 40
4.000000000000001
 50
355.0399569508203
 51
4.960043049179863
210
0.0
220
0.0
230
-1.0
  0
ARC
  5
F5133
  8
VISIBLE
 10
-1.750000000000001
 20
0.8454116750339782
 30
0.0
 40
0.005
 50
4.960043049179201
 51
175.0399569508214
210
0.0
220
0.0
230
-1.0
  0
ARC
  5
F5134
  8
VISIBLE
 10
2.23003966999705
 20
0.5000000000000034
 30
0.0
 40
4.000000000000001
 50
175.0399569508203
 51
184.9600430491799
210
0.0
220
0.0
230
-1.0
  0
ARC
  5
F5135
  8
VISIBLE
 10
-1.75
 20
0.1545883249660204
 30
0.0
 40
0.005
 50
184.9600430491794
 51
355.0399569508203
210
0.0
220
0.0
230
-1.0
  0
ARC
  5
F5136
  8
VISIBLE
 10
-5.63003966999705
 20
0.5000000000000011
 30
0.0
 40
4.000000000000001
 50
355.0399569508202
 51
4.960043049179811
210
0.0
220
0.0
230
-1.0
  0
ARC
  5
F5137
  8
VISIBLE
 10
-1.65
 20
0.8454116750339812
 30
0.0
 40
0.005
 50
4.960043049178998
 51
175.0399569508206
210
0.0
220
0.0
230
-1.0
  0
ARC
  5
F5138
  8
VISIBLE
 10
2.33003966999705
 20
0.5000000000000034
 30
0.0
 40
4.000000000000001
 50
175.0399569508202
 51
184.9600430491798
210
0.0
220
0.0
230
-1.0
  0
ARC
  5
F5139
  8
VISIBLE
 10
-1.65
 20
0.1545883249660233
 30
0.0
 40
0.005
 50
184.960043049179
 51
355.0399569508203
210
0.0
220
0.0
230
-1.0
  0
ARC
  5
F513A
  8
VISIBLE
 10
-5.53003966999705
 20
0.4999999999999952
 30
0.0
 40
4.000000000000001
 50
355.0399569508203
 51
4.960043049179863
210
0.0
220
0.0
230
-1.0
  0
ARC
  5
F513B
  8
VISIBLE
 10
-1.550000000000001
 20
0.8454116750339782
 30
0.0
 40
0.005
 50
4.960043049179201
 51
175.0399569508214
210
0.0
220
0.0
230
-1.0
  0
ARC
  5
F513C
  8
VISIBLE
 10
2.43003966999705
 20
0.5000000000000034
 30
0.0
 40
4.000000000000001
 50
175.0399569508203
 51
184.9600430491799
210
0.0
220
0.0
230
-1.0
  0
ARC
  5
F513D
  8
VISIBLE
 10
-1.55
 20
0.1545883249660204
 30
0.0
 40
0.005
 50
184.9600430491792
 51
355.0399569508201
210
0.0
220
0.0
230
-1.0
  0
ARC
  5
F513E
  8
VISIBLE
 10
-5.430039669997051
 20
0.4999999999999952
 30
0.0
 40
4.000000000000001
 50
355.0399569508203
 51
4.960043049179811
210
0.0
220
0.0
230
-1.0
  0
ARC
  5
F513F
  8
VISIBLE
 10
-1.450000000000001
 20
0.8454116750339752
 30
0.0
 40
0.005
 50
4.960043049178998
 51
175.0399569508212
210
0.0
220
0.0
230
-1.0
  0
ARC
  5
F5140
  8
VISIBLE
 10
2.530039669997049
 20
0.5000000000000049
 30
0.0
 40
4.000000000000001
 50
175.0399569508203
 51
184.9600430491798
210
0.0
220
0.0
230
-1.0
  0
ARC
  5
F5141
  8
VISIBLE
 10
-1.45
 20
0.1545883249660251
 30
0.0
 40
0.005
 50
184.9600430491799
 51
355.0399569508199
210
0.0
220
0.0
230
-1.0
  0
ARC
  5
F5142
  8
VISIBLE
 10
-5.33003966999705
 20
0.4999999999999952
 30
0.0
 40
4.000000000000001
 50
355.0399569508203
 51
4.960043049179863
210
0.0
220
0.0
230
-1.0
  0
ARC
  5
F5143
  8
VISIBLE
 10
-1.350000000000001
 20
0.8454116750339774
 30
0.0
 40
0.005
 50
4.960043049180474
 51
175.0399569508201
210
0.0
220
0.0
230
-1.0
  0
ARC
  5
F5144
  8
VISIBLE
 10
2.630039669997049
 20
0.5000000000000019
 30
0.0
 40
4.000000000000001
 50
175.0399569508202
 51
184.9600430491799
210
0.0
220
0.0
230
-1.0
  0
ARC
  5
F5145
  8
VISIBLE
 10
-1.35
 20
0.1545883249660197
 30
0.0
 40
0.005
 50
184.9600430491801
 51
355.0399569508211
210
0.0
220
0.0
230
-1.0
  0
ARC
  5
F5146
  8
VISIBLE
 10
-5.23003966999705
 20
0.5000000000000011
 30
0.0
 40
4.000000000000001
 50
355.0399569508203
 51
4.960043049179863
210
0.0
220
0.0
230
-1.0
  0
ARC
  5
F5147
  8
VISIBLE
 10
-1.25
 20
0.845411675033982
 30
0.0
 40
0.005
 50
4.960043049180728
 51
175.0399569508191
210
0.0
220
0.0
230
-1.0
  0
ARC
  5
F5148
  8
VISIBLE
 10
2.73003966999705
 20
0.5000000000000049
 30
0.0
 40
4.000000000000001
 50
175.0399569508202
 51
184.9600430491798
210
0.0
220
0.0
230
-1.0
  0
ARC
  5
F5149
  8
VISIBLE
 10
-1.25
 20
0.1545883249660241
 30
0.0
 40
0.005
 50
184.9600430491792
 51
355.0399569508201
210
0.0
220
0.0
230
-1.0
  0
ARC
  5
F514A
  8
VISIBLE
 10
-5.13003966999705
 20
0.4999999999999952
 30
0.0
 40
4.000000000000001
 50
355.0399569508203
 51
4.960043049179863
210
0.0
220
0.0
230
-1.0
  0
ARC
  5
F514B
  8
VISIBLE
 10
-1.150000000000001
 20
0.8454116750339774
 30
0.0
 40
0.005
 50
4.960043049180728
 51
175.0399569508201
210
0.0
220
0.0
230
-1.0
  0
ARC
  5
F514C
  8
VISIBLE
 10
2.83003966999705
 20
0.5000000000000019
 30
0.0
 40
4.000000000000001
 50
175.0399569508202
 51
184.9600430491798
210
0.0
220
0.0
230
-1.0
  0
ARC
  5
F514D
  8
VISIBLE
 10
-1.15
 20
0.1545883249660197
 30
0.0
 40
0.005
 50
184.9600430491798
 51
355.0399569508205
210
0.0
220
0.0
230
-1.0
  0
ARC
  5
F514E
  8
VISIBLE
 10
-5.030039669997051
 20
0.4999999999999952
 30
0.0
 40
4.000000000000001
 50
355.0399569508203
 51
4.960043049179811
210
0.0
220
0.0
230
-1.0
  0
ARC
  5
F514F
  8
VISIBLE
 10
-1.050000000000001
 20
0.8454116750339752
 30
0.0
 40
0.005
 50
4.960043049179201
 51
175.0399569508206
210
0.0
220
0.0
230
-1.0
  0
ARC
  5
F5150
  8
VISIBLE
 10
2.93003966999705
 20
0.5000000000000049
 30
0.0
 40
4.000000000000001
 50
175.0399569508203
 51
184.9600430491798
210
0.0
220
0.0
230
-1.0
  0
ARC
  5
F5151
  8
VISIBLE
 10
-1.05
 20
0.1545883249660251
 30
0.0
 40
0.005
 50
184.9600430491799
 51
355.0399569508199
210
0.0
220
0.0
230
-1.0
  0
ARC
  5
F5152
  8
VISIBLE
 10
-4.93003966999705
 20
0.4999999999999952
 30
0.0
 40
4.000000000000001
 50
355.0399569508203
 51
4.960043049179863
210
0.0
220
0.0
230
-1.0
  0
ARC
  5
F5153
  8
VISIBLE
 10
-0.9500000000000008
 20
0.8454116750339774
 30
0.0
 40
0.005
 50
4.960043049180474
 51
175.0399569508201
210
0.0
220
0.0
230
-1.0
  0
ARC
  5
F5154
  8
VISIBLE
 10
3.03003966999705
 20
0.5000000000000019
 30
0.0
 40
4.000000000000001
 50
175.0399569508202
 51
184.9600430491798
210
0.0
220
0.0
230
-1.0
  0
ARC
  5
F5155
  8
VISIBLE
 10
-0.9499999999999997
 20
0.1545883249660197
 30
0.0
 40
0.005
 50
184.96004304918
 51
355.0399569508208
210
0.0
220
0.0
230
-1.0
  0
ARC
  5
F5156
  8
VISIBLE
 10
-4.83003966999705
 20
0.4999999999999982
 30
0.0
 40
4.000000000000001
 50
355.0399569508203
 51
4.960043049179863
210
0.0
220
0.0
230
-1.0
  0
ARC
  5
F5157
  8
VISIBLE
 10
-0.8500000000000008
 20
0.8454116750339805
 30
0.0
 40
0.005
 50
4.960043049179302
 51
175.0399569508214
210
0.0
220
0.0
230
-1.0
  0
ARC
  5
F5158
  8
VISIBLE
 10
3.13003966999705
 20
0.5000000000000049
 30
0.0
 40
4.000000000000001
 50
175.0399569508202
 51
184.9600430491798
210
0.0
220
0.0
230
-1.0
  0
ARC
  5
F5159
  8
VISIBLE
 10
-0.8499999999999996
 20
0.1545883249660227
 30
0.0
 40
0.005
 50
184.9600430491802
 51
355.0399569508207
210
0.0
220
0.0
230
-1.0
  0
ARC
  5
F515A
  8
VISIBLE
 10
-4.73003966999705
 20
0.4999999999999952
 30
0.0
 40
4.000000000000001
 50
355.0399569508203
 51
4.960043049179863
210
0.0
220
0.0
230
-1.0
  0
ARC
  5
F515B
  8
VISIBLE
 10
-0.7500000000000008
 20
0.8454116750339774
 30
0.0
 40
0.005
 50
4.960043049180474
 51
175.0399569508201
210
0.0
220
0.0
230
-1.0
  0
ARC
  5
F515C
  8
VISIBLE
 10
3.23003966999705
 20
0.5000000000000019
 30
0.0
 40
4.000000000000001
 50
175.0399569508202
 51
184.9600430491799
210
0.0
220
0.0
230
-1.0
  0
ARC
  5
F515D
  8
VISIBLE
 10
-0.7499999999999997
 20
0.1545883249660197
 30
0.0
 40
0.005
 50
184.96004304918
 51
355.0399569508207
210
0.0
220
0.0
230
-1.0
  0
ARC
  5
F515E
  8
VISIBLE
 10
-4.63003966999705
 20
0.4999999999999982
 30
0.0
 40
4.000000000000001
 50
355.0399569508203
 51
4.960043049179863
210
0.0
220
0.0
230
-1.0
  0
ARC
  5
F515F
  8
VISIBLE
 10
-0.6500000000000007
 20
0.8454116750339805
 30
0.0
 40
0.005
 50
4.960043049179302
 51
175.0399569508215
210
0.0
220
0.0
230
-1.0
  0
ARC
  5
F5160
  8
VISIBLE
 10
3.33003966999705
 20
0.5000000000000049
 30
0.0
 40
4.000000000000001
 50
175.0399569508202
 51
184.9600430491798
210
0.0
220
0.0
230
-1.0
  0
ARC
  5
F5161
  8
VISIBLE
 10
-0.6499999999999996
 20
0.1545883249660227
 30
0.0
 40
0.005
 50
184.9600430491802
 51
355.0399569508207
210
0.0
220
0.0
230
-1.0
  0
ARC
  5
F5162
  8
VISIBLE
 10
-4.53003966999705
 20
0.4999999999999952
 30
0.0
 40
4.000000000000001
 50
355.0399569508203
 51
4.960043049179863
210
0.0
220
0.0
230
-1.0
  0
ARC
  5
F5163
  8
VISIBLE
 10
-0.5500000000000008
 20
0.845411675033979
 30
0.0
 40
0.005
 50
4.960043049180931
 51
175.0399569508213
210
0.0
220
0.0
230
-1.0
  0
ARC
  5
F5164
  8
VISIBLE
 10
3.43003966999705
 20
0.5000000000000049
 30
0.0
 40
4.000000000000001
 50
175.0399569508203
 51
184.9600430491799
210
0.0
220
0.0
230
-1.0
  0
ARC
  5
F5165
  8
VISIBLE
 10
-0.5499999999999995
 20
0.1545883249660212
 30
0.0
 40
0.005
 50
184.9600430491797
 51
355.039956950821
210
0.0
220
0.0
230
-1.0
  0
LINE
  5
F5166
  8
VISIBLE
 10
0.0
 20
0.0000000000000003
 30
0.0
 11
0.4357625592965678
 21
0.0
 31
0.0
  0
ARC
  5
F5167
  8
VISIBLE
 10
0.4357625592965678
 20
0.05
 30
0.0
 40
0.05
 50
270.0
 51
357.4999999999999
  0
LINE
  5
F5168
  8
VISIBLE
 10
0.5000000000000001
 20
0.3750000000000001
 30
0.0
 11
0.4857149703756606
 21
0.0478190306317332
 31
0.0
  0
LINE
  5
F5169
  8
VISIBLE
 10
0.5000000000000001
 20
0.3750000000000001
 30
0.0
 11
0.5142850296243395
 21
0.0478190306317332
 31
0.0
  0
ARC
  5
F516A
  8
VISIBLE
 10
0.5642374407034324
 20
0.05
 30
0.0
 40
0.05
 50
182.5
 51
253.4561654146858
  0
ARC
  5
F516B
  8
VISIBLE
 10
0.5357625592965676
 20
0.05
 30
0.0
 40
0.05
 50
286.5438345853143
 51
357.4999999999999
  0
LINE
  5
F516C
  8
VISIBLE
 10
0.6
 20
0.3749999999999999
 30
0.0
 11
0.5857149703756603
 21
0.0478190306317332
 31
0.0
  0
LINE
  5
F516D
  8
VISIBLE
 10
0.6
 20
0.3749999999999999
 30
0.0
 11
0.61428502962434
 21
0.0478190306317332
 31
0.0
  0
ARC
  5
F516E
  8
VISIBLE
 10
0.6642374407034328
 20
0.05
 30
0.0
 40
0.05
 50
182.5
 51
253.4561654146854
  0
ARC
  5
F516F
  8
VISIBLE
 10
0.6357625592965674
 20
0.05
 30
0.0
 40
0.05
 50
286.5438345853146
 51
357.4999999999999
  0
LINE
  5
F5170
  8
VISIBLE
 10
0.7000000000000001
 20
0.3749999999999999
 30
0.0
 11
0.6857149703756603
 21
0.0478190306317332
 31
0.0
  0
LINE
  5
F5171
  8
VISIBLE
 10
0.7000000000000001
 20
0.3749999999999999
 30
0.0
 11
0.71428502962434
 21
0.0478190306317332
 31
0.0
  0
ARC
  5
F5172
  8
VISIBLE
 10
0.7642374407034329
 20
0.05
 30
0.0
 40
0.05
 50
182.5
 51
253.4561654146854
  0
ARC
  5
F5173
  8
VISIBLE
 10
0.7357625592965676
 20
0.05
 30
0.0
 40
0.05
 50
286.5438345853144
 51
357.5
  0
LINE
  5
F5174
  8
VISIBLE
 10
0.8000000000000002
 20
0.3749999999999999
 30
0.0
 11
0.7857149703756605
 21
0.0478190306317332
 31
0.0
  0
LINE
  5
F5175
  8
VISIBLE
 10
0.8000000000000002
 20
0.3749999999999999
 30
0.0
 11
0.81428502962434
 21
0.0478190306317332
 31
0.0
  0
ARC
  5
F5176
  8
VISIBLE
 10
0.864237440703433
 20
0.05
 30
0.0
 40
0.05
 50
182.5
 51
253.4561654146853
  0
ARC
  5
F5177
  8
VISIBLE
 10
0.8357625592965675
 20
0.05
 30
0.0
 40
0.05
 50
286.5438345853146
 51
357.4999999999999
  0
LINE
  5
F5178
  8
VISIBLE
 10
0.9000000000000002
 20
0.3750000000000001
 30
0.0
 11
0.8857149703756606
 21
0.0478190306317332
 31
0.0
  0
LINE
  5
F5179
  8
VISIBLE
 10
0.9000000000000002
 20
0.3750000000000001
 30
0.0
 11
0.9142850296243401
 21
0.0478190306317332
 31
0.0
  0
ARC
  5
F517A
  8
VISIBLE
 10
0.964237440703433
 20
0.05
 30
0.0
 40
0.05
 50
182.5
 51
253.4561654146854
  0
ARC
  5
F517B
  8
VISIBLE
 10
0.9357625592965676
 20
0.05
 30
0.0
 40
0.05
 50
286.5438345853146
 51
357.4999999999999
  0
LINE
  5
F517C
  8
VISIBLE
 10
1.0
 20
0.3749999999999999
 30
0.0
 11
0.9857149703756606
 21
0.0478190306317332
 31
0.0
  0
LINE
  5
F517D
  8
VISIBLE
 10
1.0
 20
0.3749999999999999
 30
0.0
 11
1.01428502962434
 21
0.0478190306317332
 31
0.0
  0
ARC
  5
F517E
  8
VISIBLE
 10
1.064237440703433
 20
0.05
 30
0.0
 40
0.05
 50
182.5
 51
253.4561654146851
  0
ARC
  5
F517F
  8
VISIBLE
 10
1.035762559296568
 20
0.05
 30
0.0
 40
0.05
 50
286.5438345853146
 51
357.4999999999999
  0
LINE
  5
F5180
  8
VISIBLE
 10
1.1
 20
0.3749999999999999
 30
0.0
 11
1.085714970375661
 21
0.0478190306317332
 31
0.0
  0
LINE
  5
F5181
  8
VISIBLE
 10
1.1
 20
0.3749999999999999
 30
0.0
 11
1.11428502962434
 21
0.0478190306317332
 31
0.0
  0
ARC
  5
F5182
  8
VISIBLE
 10
1.164237440703433
 20
0.05
 30
0.0
 40
0.05
 50
182.5
 51
253.4561654146851
  0
ARC
  5
F5183
  8
VISIBLE
 10
1.135762559296568
 20
0.05
 30
0.0
 40
0.05
 50
286.5438345853146
 51
357.4999999999999
  0
LINE
  5
F5184
  8
VISIBLE
 10
1.2
 20
0.3749999999999999
 30
0.0
 11
1.18571497037566
 21
0.0478190306317332
 31
0.0
  0
LINE
  5
F5185
  8
VISIBLE
 10
1.2
 20
0.3749999999999999
 30
0.0
 11
1.21428502962434
 21
0.0478190306317332
 31
0.0
  0
ARC
  5
F5186
  8
VISIBLE
 10
1.264237440703433
 20
0.05
 30
0.0
 40
0.05
 50
182.5
 51
253.4561654146856
  0
ARC
  5
F5187
  8
VISIBLE
 10
1.235762559296568
 20
0.05
 30
0.0
 40
0.05
 50
286.5438345853148
 51
357.5
  0
LINE
  5
F5188
  8
VISIBLE
 10
1.3
 20
0.3749999999999999
 30
0.0
 11
1.285714970375661
 21
0.0478190306317332
 31
0.0
  0
LINE
  5
F5189
  8
VISIBLE
 10
1.3
 20
0.3749999999999999
 30
0.0
 11
1.31428502962434
 21
0.0478190306317332
 31
0.0
  0
ARC
  5
F518A
  8
VISIBLE
 10
1.364237440703433
 20
0.05
 30
0.0
 40
0.05
 50
182.5
 51
253.4561654146854
  0
ARC
  5
F518B
  8
VISIBLE
 10
1.335762559296568
 20
0.05
 30
0.0
 40
0.05
 50
286.5438345853146
 51
357.4999999999999
  0
LINE
  5
F518C
  8
VISIBLE
 10
1.4
 20
0.3750000000000001
 30
0.0
 11
1.385714970375661
 21
0.0478190306317332
 31
0.0
  0
LINE
  5
F518D
  8
VISIBLE
 10
1.4
 20
0.3750000000000001
 30
0.0
 11
1.41428502962434
 21
0.0478190306317332
 31
0.0
  0
ARC
  5
F518E
  8
VISIBLE
 10
1.464237440703433
 20
0.05
 30
0.0
 40
0.05
 50
182.5
 51
253.4561654146854
  0
ARC
  5
F518F
  8
VISIBLE
 10
1.435762559296568
 20
0.05
 30
0.0
 40
0.05
 50
286.5438345853146
 51
357.4999999999999
  0
LINE
  5
F5190
  8
VISIBLE
 10
1.5
 20
0.3750000000000001
 30
0.0
 11
1.48571497037566
 21
0.0478190306317331
 31
0.0
  0
LINE
  5
F5191
  8
VISIBLE
 10
1.5
 20
0.3750000000000001
 30
0.0
 11
1.51428502962434
 21
0.0478190306317332
 31
0.0
  0
ARC
  5
F5192
  8
VISIBLE
 10
1.564237440703433
 20
0.05
 30
0.0
 40
0.05
 50
182.5
 51
253.4561654146854
  0
ARC
  5
F5193
  8
VISIBLE
 10
1.535762559296568
 20
0.05
 30
0.0
 40
0.05
 50
286.5438345853146
 51
357.4999999999999
  0
LINE
  5
F5194
  8
VISIBLE
 10
1.6
 20
0.3749999999999999
 30
0.0
 11
1.585714970375661
 21
0.0478190306317332
 31
0.0
  0
LINE
  5
F5195
  8
VISIBLE
 10
1.6
 20
0.3749999999999999
 30
0.0
 11
1.61428502962434
 21
0.0478190306317332
 31
0.0
  0
ARC
  5
F5196
  8
VISIBLE
 10
1.664237440703433
 20
0.05
 30
0.0
 40
0.05
 50
182.5
 51
253.4561654146852
  0
ARC
  5
F5197
  8
VISIBLE
 10
1.635762559296568
 20
0.05
 30
0.0
 40
0.05
 50
286.5438345853146
 51
357.4999999999999
  0
LINE
  5
F5198
  8
VISIBLE
 10
1.7
 20
0.3749999999999999
 30
0.0
 11
1.685714970375661
 21
0.0478190306317332
 31
0.0
  0
LINE
  5
F5199
  8
VISIBLE
 10
1.7
 20
0.3749999999999999
 30
0.0
 11
1.71428502962434
 21
0.0478190306317332
 31
0.0
  0
ARC
  5
F519A
  8
VISIBLE
 10
1.764237440703433
 20
0.05
 30
0.0
 40
0.05
 50
182.5
 51
253.4561654146854
  0
ARC
  5
F519B
  8
VISIBLE
 10
1.735762559296568
 20
0.05
 30
0.0
 40
0.05
 50
286.5438345853146
 51
357.4999999999999
  0
LINE
  5
F519C
  8
VISIBLE
 10
1.8
 20
0.3749999999999999
 30
0.0
 11
1.785714970375661
 21
0.0478190306317332
 31
0.0
  0
LINE
  5
F519D
  8
VISIBLE
 10
1.8
 20
0.3749999999999999
 30
0.0
 11
1.81428502962434
 21
0.0478190306317332
 31
0.0
  0
ARC
  5
F519E
  8
VISIBLE
 10
1.864237440703433
 20
0.05
 30
0.0
 40
0.05
 50
182.5
 51
270.0
  0
LINE
  5
F519F
  8
VISIBLE
 10
1.864237440703433
 20
0.0
 30
0.0
 11
2.0
 21
0.0000000000000003
 31
0.0
  0
LINE
  5
F51A0
  8
VISIBLE
 10
2.0
 20
0.0000000000000003
 30
0.0
 11
2.0
 21
1.0
 31
0.0
  0
LINE
  5
F51A1
  8
VISIBLE
 10
1.864237440703433
 20
1.0
 30
0.0
 11
2.0
 21
1.0
 31
0.0
  0
ARC
  5
F51A2
  8
VISIBLE
 10
1.864237440703433
 20
0.9500000000000001
 30
0.0
 40
0.05
 50
90.0
 51
177.4999999999999
  0
LINE
  5
F51A3
  8
VISIBLE
 10
1.8
 20
0.625
 30
0.0
 11
1.81428502962434
 21
0.9521809693682669
 31
0.0
  0
LINE
  5
F51A4
  8
VISIBLE
 10
1.8
 20
0.625
 30
0.0
 11
1.785714970375661
 21
0.9521809693682669
 31
0.0
  0
ARC
  5
F51A5
  8
VISIBLE
 10
1.735762559296568
 20
0.9500000000000001
 30
0.0
 40
0.05
 50
2.500000000000048
 51
73.45616541468544
  0
ARC
  5
F51A6
  8
VISIBLE
 10
1.764237440703433
 20
0.9500000000000001
 30
0.0
 40
0.05
 50
106.5438345853143
 51
177.5
  0
LINE
  5
F51A7
  8
VISIBLE
 10
1.700000000000001
 20
0.625
 30
0.0
 11
1.71428502962434
 21
0.9521809693682669
 31
0.0
  0
LINE
  5
F51A8
  8
VISIBLE
 10
1.700000000000001
 20
0.625
 30
0.0
 11
1.685714970375661
 21
0.9521809693682669
 31
0.0
  0
ARC
  5
F51A9
  8
VISIBLE
 10
1.635762559296568
 20
0.9500000000000001
 30
0.0
 40
0.05
 50
2.500000000000048
 51
73.45616541468544
  0
ARC
  5
F51AA
  8
VISIBLE
 10
1.664237440703433
 20
0.9500000000000001
 30
0.0
 40
0.05
 50
106.5438345853148
 51
177.5
  0
LINE
  5
F51AB
  8
VISIBLE
 10
1.6
 20
0.625
 30
0.0
 11
1.61428502962434
 21
0.9521809693682669
 31
0.0
  0
LINE
  5
F51AC
  8
VISIBLE
 10
1.6
 20
0.625
 30
0.0
 11
1.585714970375661
 21
0.9521809693682669
 31
0.0
  0
ARC
  5
F51AD
  8
VISIBLE
 10
1.535762559296568
 20
0.9500000000000001
 30
0.0
 40
0.05
 50
2.500000000000048
 51
73.45616541468544
  0
ARC
  5
F51AE
  8
VISIBLE
 10
1.564237440703433
 20
0.9500000000000001
 30
0.0
 40
0.05
 50
106.5438345853146
 51
177.5
  0
LINE
  5
F51AF
  8
VISIBLE
 10
1.5
 20
0.625
 30
0.0
 11
1.51428502962434
 21
0.9521809693682669
 31
0.0
  0
LINE
  5
F51B0
  8
VISIBLE
 10
1.5
 20
0.625
 30
0.0
 11
1.48571497037566
 21
0.9521809693682669
 31
0.0
  0
ARC
  5
F51B1
  8
VISIBLE
 10
1.435762559296568
 20
0.9500000000000001
 30
0.0
 40
0.05
 50
2.500000000000048
 51
73.45616541468544
  0
ARC
  5
F51B2
  8
VISIBLE
 10
1.464237440703433
 20
0.9500000000000001
 30
0.0
 40
0.05
 50
106.5438345853146
 51
177.5
  0
LINE
  5
F51B3
  8
VISIBLE
 10
1.400000000000001
 20
0.625
 30
0.0
 11
1.41428502962434
 21
0.9521809693682669
 31
0.0
  0
LINE
  5
F51B4
  8
VISIBLE
 10
1.400000000000001
 20
0.625
 30
0.0
 11
1.385714970375661
 21
0.9521809693682669
 31
0.0
  0
ARC
  5
F51B5
  8
VISIBLE
 10
1.335762559296568
 20
0.9500000000000001
 30
0.0
 40
0.05
 50
2.500000000000048
 51
73.45616541468544
  0
ARC
  5
F51B6
  8
VISIBLE
 10
1.364237440703433
 20
0.9500000000000001
 30
0.0
 40
0.05
 50
106.5438345853146
 51
177.4999999999999
  0
LINE
  5
F51B7
  8
VISIBLE
 10
1.300000000000001
 20
0.625
 30
0.0
 11
1.31428502962434
 21
0.9521809693682669
 31
0.0
  0
LINE
  5
F51B8
  8
VISIBLE
 10
1.300000000000001
 20
0.625
 30
0.0
 11
1.285714970375661
 21
0.9521809693682669
 31
0.0
  0
ARC
  5
F51B9
  8
VISIBLE
 10
1.235762559296568
 20
0.9500000000000001
 30
0.0
 40
0.05
 50
2.500000000000048
 51
73.45616541468517
  0
ARC
  5
F51BA
  8
VISIBLE
 10
1.264237440703433
 20
0.9500000000000001
 30
0.0
 40
0.05
 50
106.5438345853143
 51
177.4999999999999
  0
LINE
  5
F51BB
  8
VISIBLE
 10
1.2
 20
0.625
 30
0.0
 11
1.21428502962434
 21
0.9521809693682669
 31
0.0
  0
LINE
  5
F51BC
  8
VISIBLE
 10
1.2
 20
0.625
 30
0.0
 11
1.18571497037566
 21
0.9521809693682669
 31
0.0
  0
ARC
  5
F51BD
  8
VISIBLE
 10
1.135762559296568
 20
0.9500000000000001
 30
0.0
 40
0.05
 50
2.500000000000048
 51
73.45616541468544
  0
ARC
  5
F51BE
  8
VISIBLE
 10
1.164237440703433
 20
0.9500000000000001
 30
0.0
 40
0.05
 50
106.5438345853146
 51
177.4999999999999
  0
LINE
  5
F51BF
  8
VISIBLE
 10
1.100000000000001
 20
0.625
 30
0.0
 11
1.11428502962434
 21
0.9521809693682669
 31
0.0
  0
LINE
  5
F51C0
  8
VISIBLE
 10
1.100000000000001
 20
0.625
 30
0.0
 11
1.085714970375661
 21
0.9521809693682669
 31
0.0
  0
ARC
  5
F51C1
  8
VISIBLE
 10
1.035762559296568
 20
0.9500000000000001
 30
0.0
 40
0.05
 50
2.500000000000048
 51
73.45616541468517
  0
ARC
  5
F51C2
  8
VISIBLE
 10
1.064237440703433
 20
0.9500000000000001
 30
0.0
 40
0.05
 50
106.5438345853146
 51
177.5
  0
LINE
  5
F51C3
  8
VISIBLE
 10
1.0
 20
0.625
 30
0.0
 11
1.01428502962434
 21
0.9521809693682669
 31
0.0
  0
LINE
  5
F51C4
  8
VISIBLE
 10
1.0
 20
0.625
 30
0.0
 11
0.9857149703756606
 21
0.9521809693682669
 31
0.0
  0
ARC
  5
F51C5
  8
VISIBLE
 10
0.9357625592965676
 20
0.9500000000000001
 30
0.0
 40
0.05
 50
2.500000000000048
 51
73.45616541468544
  0
ARC
  5
F51C6
  8
VISIBLE
 10
0.964237440703433
 20
0.9500000000000001
 30
0.0
 40
0.05
 50
106.5438345853146
 51
177.4999999999999
  0
LINE
  5
F51C7
  8
VISIBLE
 10
0.9000000000000004
 20
0.625
 30
0.0
 11
0.9142850296243401
 21
0.9521809693682669
 31
0.0
  0
LINE
  5
F51C8
  8
VISIBLE
 10
0.9000000000000004
 20
0.625
 30
0.0
 11
0.8857149703756607
 21
0.9521809693682669
 31
0.0
  0
ARC
  5
F51C9
  8
VISIBLE
 10
0.8357625592965677
 20
0.9500000000000001
 30
0.0
 40
0.05
 50
2.500000000000048
 51
73.45616541468569
  0
ARC
  5
F51CA
  8
VISIBLE
 10
0.8642374407034328
 20
0.9500000000000001
 30
0.0
 40
0.05
 50
106.5438345853145
 51
177.4999999999999
  0
LINE
  5
F51CB
  8
VISIBLE
 10
0.8000000000000004
 20
0.625
 30
0.0
 11
0.8142850296243399
 21
0.9521809693682669
 31
0.0
  0
LINE
  5
F51CC
  8
VISIBLE
 10
0.8000000000000004
 20
0.625
 30
0.0
 11
0.7857149703756605
 21
0.9521809693682669
 31
0.0
  0
ARC
  5
F51CD
  8
VISIBLE
 10
0.7357625592965676
 20
0.9500000000000001
 30
0.0
 40
0.05
 50
2.500000000000048
 51
73.45616541468554
  0
ARC
  5
F51CE
  8
VISIBLE
 10
0.7642374407034328
 20
0.9500000000000001
 30
0.0
 40
0.05
 50
106.5438345853145
 51
177.5
  0
LINE
  5
F51CF
  8
VISIBLE
 10
0.7000000000000003
 20
0.625
 30
0.0
 11
0.7142850296243398
 21
0.9521809693682669
 31
0.0
  0
LINE
  5
F51D0
  8
VISIBLE
 10
0.7000000000000003
 20
0.625
 30
0.0
 11
0.6857149703756603
 21
0.9521809693682669
 31
0.0
  0
ARC
  5
F51D1
  8
VISIBLE
 10
0.6357625592965674
 20
0.9500000000000001
 30
0.0
 40
0.05
 50
2.500000000000048
 51
73.45616541468544
  0
ARC
  5
F51D2
  8
VISIBLE
 10
0.6642374407034329
 20
0.9500000000000001
 30
0.0
 40
0.05
 50
106.5438345853147
 51
177.5
  0
LINE
  5
F51D3
  8
VISIBLE
 10
0.6000000000000003
 20
0.625
 30
0.0
 11
0.6142850296243398
 21
0.9521809693682669
 31
0.0
  0
LINE
  5
F51D4
  8
VISIBLE
 10
0.6000000000000003
 20
0.625
 30
0.0
 11
0.5857149703756603
 21
0.9521809693682669
 31
0.0
  0
ARC
  5
F51D5
  8
VISIBLE
 10
0.5357625592965675
 20
0.9500000000000001
 30
0.0
 40
0.05
 50
2.500000000000048
 51
73.45616541468569
  0
ARC
  5
F51D6
  8
VISIBLE
 10
0.5642374407034324
 20
0.9500000000000001
 30
0.0
 40
0.05
 50
106.5438345853143
 51
177.4999999999999
  0
LINE
  5
F51D7
  8
VISIBLE
 10
0.5000000000000001
 20
0.625
 30
0.0
 11
0.5142850296243395
 21
0.9521809693682669
 31
0.0
  0
LINE
  5
F51D8
  8
VISIBLE
 10
0.5000000000000001
 20
0.625
 30
0.0
 11
0.4857149703756606
 21
0.9521809693682669
 31
0.0
  0
ARC
  5
F51D9
  8
VISIBLE
 10
0.4357625592965678
 20
0.9500000000000001
 30
0.0
 40
0.05
 50
2.500000000000048
 51
90.0
  0
LINE
  5
F51DA
  8
VISIBLE
 10
0.0
 20
1.0
 30
0.0
 11
0.4357625592965678
 21
1.0
 31
0.0
  0
LINE
  5
F51DB
  8
VISIBLE
 10
0.0
 20
0.7500000000000001
 30
0.0
 11
0.0
 21
1.0
 31
0.0
  0
LINE
  5
F51DC
  8
VISIBLE
 10
0.0
 20
0.7500000000000001
 30
0.0
 11
0.125
 21
0.7500000000000001
 31
0.0
  0
LINE
  5
F51DD
  8
VISIBLE
 10
0.125
 20
0.5625000000000001
 30
0.0
 11
0.125
 21
0.7500000000000001
 31
0.0
  0
LINE
  5
F51DE
  8
VISIBLE
 10
0.125
 20
0.5625000000000001
 30
0.0
 11
0.225
 21
0.5625000000000001
 31
0.0
  0
LINE
  5
F51DF
  8
VISIBLE
 10
0.225
 20
0.6562500000000001
 30
0.0
 11
0.225
 21
0.5625000000000001
 31
0.0
  0
LINE
  5
F51E0
  8
VISIBLE
 10
0.225
 20
0.6562500000000001
 30
0.0
 11
0.325
 21
0.6562500000000001
 31
0.0
  0
LINE
  5
F51E1
  8
VISIBLE
 10
0.325
 20
0.6562500000000001
 30
0.0
 11
0.325
 21
0.5625000000000001
 31
0.0
  0
LINE
  5
F51E2
  8
VISIBLE
 10
0.325
 20
0.5625000000000001
 30
0.0
 11
0.3750000000000001
 21
0.5625000000000001
 31
0.0
  0
LINE
  5
F51E3
  8
VISIBLE
 10
0.3750000000000001
 20
0.4375000000000001
 30
0.0
 11
0.3750000000000001
 21
0.5625000000000001
 31
0.0
  0
LINE
  5
F51E4
  8
VISIBLE
 10
0.325
 20
0.4375000000000001
 30
0.0
 11
0.3750000000000001
 21
0.4375000000000001
 31
0.0
  0
LINE
  5
F51E5
  8
VISIBLE
 10
0.325
 20
0.4375000000000001
 30
0.0
 11
0.325
 21
0.3437500000000001
 31
0.0
  0
LINE
  5
F51E6
  8
VISIBLE
 10
0.225
 20
0.3437500000000001
 30
0.0
 11
0.325
 21
0.3437500000000001
 31
0.0
  0
LINE
  5
F51E7
  8
VISIBLE
 10
0.225
 20
0.4375000000000001
 30
0.0
 11
0.225
 21
0.3437500000000001
 31
0.0
  0
LINE
  5
F51E8
  8
VISIBLE
 10
0.125
 20
0.4375000000000001
 30
0.0
 11
0.225
 21
0.4375000000000001
 31
0.0
  0
LINE
  5
F51E9
  8
VISIBLE
 10
0.125
 20
0.2500000000000001
 30
0.0
 11
0.125
 21
0.4375000000000001
 31
0.0
  0
LINE
  5
F51EA
  8
VISIBLE
 10
0.0
 20
0.2500000000000001
 30
0.0
 11
0.125
 21
0.2500000000000001
 31
0.0
  0
LINE
  5
F51EB
  8
VISIBLE
 10
0.0
 20
0.0000000000000003
 30
0.0
 11
0.0
 21
0.2500000000000001
 31
0.0
  0
ENDSEC
  0
EOF
